<svg width="736" height="800" viewBox="0 0 736 800" fill="none" xmlns="http://www.w3.org/2000/svg">
<path d="M734.824 194.027L734.509 192.452C734.194 190.981 733.774 189.616 733.144 188.146C733.039 187.831 732.934 187.411 732.723 187.095C731.988 185.415 731.148 183.945 730.203 182.475L729.363 181.319C728.523 180.164 727.682 179.114 726.632 178.064C726.317 177.749 726.002 177.329 725.687 177.013C724.427 175.753 723.062 174.598 721.591 173.548C721.381 173.443 721.066 173.233 720.856 173.128C719.911 172.498 718.966 171.867 717.915 171.342L381.847 3.30817C372.92 -1.10272 362.523 -1.10272 353.702 3.30817L17.6332 171.342C16.583 171.867 15.6378 172.498 14.6927 173.128C14.4826 173.233 14.1675 173.443 13.9575 173.548C12.4872 174.598 11.1219 175.753 9.86167 177.013C9.54661 177.329 9.23154 177.644 8.91648 178.064C7.97129 179.114 7.02609 180.164 6.18592 181.319L5.34575 182.475C4.40056 183.945 3.56039 185.52 2.82524 187.095C2.72022 187.411 2.6152 187.831 2.40515 188.146C1.88005 189.511 1.45996 190.981 1.03988 192.452L0.724812 194.027C0.409748 195.917 0.199706 197.808 0.199707 199.698V600.459C0.199707 612.432 6.92107 623.249 17.6332 628.605L353.702 796.639C353.912 796.744 354.227 796.849 354.542 796.954C356.012 797.69 357.692 798.215 359.268 798.635C359.898 798.845 360.423 799.055 361.053 799.16C363.258 799.685 365.569 800 367.879 800C370.19 800 372.5 799.685 374.706 799.16C375.336 799.055 375.861 798.74 376.491 798.635C378.171 798.215 379.747 797.585 381.217 796.954C381.427 796.849 381.742 796.744 382.057 796.639L718.126 628.605C723.357 625.993 727.758 621.978 730.837 617.007C733.916 612.036 735.551 606.307 735.559 600.459V199.698C735.349 197.808 735.139 195.917 734.824 194.027ZM367.774 66.8461L633.373 199.698L537.174 247.798L381.637 171.447C381.427 171.342 381.112 171.342 380.902 171.237C379.537 170.607 378.066 170.082 376.596 169.662C375.966 169.452 375.336 169.242 374.601 169.032C373.007 168.712 371.393 168.502 369.77 168.402C369.14 168.402 368.51 168.192 367.879 168.192H367.669C363.153 168.192 358.848 169.137 354.962 170.922C354.857 170.922 354.752 171.027 354.647 171.027L192.494 244.857L102.175 199.698L367.774 66.8461ZM367.774 532.826L259.077 478.53L367.459 417.617L474.056 479.685L367.774 532.826ZM505.877 302.619V425.389L399.281 363.216V250.318L505.877 302.619ZM336.268 362.901L223.37 426.334V300.098L336.268 248.638V362.901ZM63.2125 400.079V250.633L160.357 299.258V480.105C160.357 480.63 160.462 481.155 160.567 481.785L160.882 485.146L161.512 488.192C161.723 489.137 162.038 490.082 162.353 491.027C162.773 492.077 163.193 493.128 163.718 494.178C163.928 494.703 164.138 495.123 164.348 495.648C164.453 495.963 164.768 496.068 164.873 496.383C166.133 498.589 167.604 500.584 169.389 502.37L169.704 502.685C171.952 504.855 174.498 506.694 177.266 508.146C177.686 508.356 178.001 508.566 178.421 508.776C178.736 508.881 178.946 509.091 179.156 509.301L336.268 587.542V717.453L63.2125 580.926V400.079ZM672.336 580.926L399.281 717.453V587.542L551.457 511.506C557.021 508.726 561.637 504.359 564.721 498.957C567.805 493.555 569.219 487.36 568.785 481.155C568.785 480.84 568.89 480.525 568.89 480.21V302.409L672.336 250.633V580.926Z" fill="url(#paint0_linear_293_169)"/>
<defs>
<linearGradient id="paint0_linear_293_169" x1="68" y1="189" x2="461" y2="525" gradientUnits="userSpaceOnUse">
<stop stop-color="#00FF85"/>
<stop offset="1" stop-color="#00FFE0"/>
</linearGradient>
</defs>
</svg>
