<svg width="16" height="16" viewBox="0 0 16 16" fill="none" xmlns="http://www.w3.org/2000/svg">
<path d="M5.99998 7.33333C7.47274 7.33333 8.66665 6.13943 8.66665 4.66667C8.66665 3.19391 7.47274 2 5.99998 2C4.52722 2 3.33331 3.19391 3.33331 4.66667C3.33331 6.13943 4.52722 7.33333 5.99998 7.33333Z" stroke="url(#paint0_linear_78_54)" stroke-width="1.5" stroke-linecap="round" stroke-linejoin="round"/>
<path d="M1.33331 14V11.3333C1.33331 10.5969 1.93027 10 2.66665 10H9.33331C10.0697 10 10.6666 10.5969 10.6666 11.3333V14" stroke="url(#paint1_linear_78_54)" stroke-width="1.5" stroke-linecap="round" stroke-linejoin="round"/>
<path d="M10.6667 2C11.2403 2.14687 11.7487 2.48047 12.1118 2.94821C12.4748 3.41595 12.6719 3.99122 12.6719 4.58333C12.6719 5.17545 12.4748 5.75072 12.1118 6.21846C11.7487 6.6862 11.2403 7.0198 10.6667 7.16667" stroke="url(#paint2_linear_78_54)" stroke-width="1.5" stroke-linecap="round" stroke-linejoin="round"/>
<path d="M12.6667 10H13.3334C14.0698 10 14.6667 10.5969 14.6667 11.3333V14" stroke="url(#paint3_linear_78_54)" stroke-width="1.5" stroke-linecap="round" stroke-linejoin="round"/>
<defs>
<linearGradient id="paint0_linear_78_54" x1="3.33331" y1="4.66667" x2="8.66665" y2="4.66667" gradientUnits="userSpaceOnUse">
<stop stop-color="#00FF85"/>
<stop offset="1" stop-color="#00FFE0"/>
</linearGradient>
<linearGradient id="paint1_linear_78_54" x1="1.33331" y1="12" x2="10.6666" y2="12" gradientUnits="userSpaceOnUse">
<stop stop-color="#00FF85"/>
<stop offset="1" stop-color="#00FFE0"/>
</linearGradient>
<linearGradient id="paint2_linear_78_54" x1="10.6667" y1="4.58333" x2="12.6719" y2="4.58333" gradientUnits="userSpaceOnUse">
<stop stop-color="#00FF85"/>
<stop offset="1" stop-color="#00FFE0"/>
</linearGradient>
<linearGradient id="paint3_linear_78_54" x1="12.6667" y1="12" x2="14.6667" y2="12" gradientUnits="userSpaceOnUse">
<stop stop-color="#00FF85"/>
<stop offset="1" stop-color="#00FFE0"/>
</linearGradient>
</defs>
</svg>
