<svg width="100" height="100" viewBox="0 0 100 100" fill="none" xmlns="http://www.w3.org/2000/svg">
<path d="M77.7777 66.6667C80.8458 66.6667 83.3333 69.1542 83.3333 72.2222C83.3333 75.2903 80.8458 77.7778 77.7777 77.7778C76.1083 77.7778 23.8916 77.7778 22.2222 77.7778C19.1541 77.7778 16.6666 75.2903 16.6666 72.2222C16.6666 69.1542 19.1541 66.6667 22.2222 66.6667C23.8916 66.6667 76.1083 66.6667 77.7777 66.6667ZM77.7777 44.4445C80.8458 44.4445 83.3333 46.932 83.3333 50C83.3333 53.0681 80.8458 55.5556 77.7777 55.5556C76.1083 55.5556 23.8916 55.5556 22.2222 55.5556C19.1541 55.5556 16.6666 53.0681 16.6666 50C16.6666 46.932 19.1541 44.4445 22.2222 44.4445C23.8916 44.4445 76.1083 44.4445 77.7777 44.4445ZM77.7777 22.2222C80.8458 22.2222 83.3333 24.7097 83.3333 27.7778C83.3333 30.8458 80.8458 33.3333 77.7777 33.3333C76.1083 33.3333 23.8916 33.3333 22.2222 33.3333C19.1541 33.3333 16.6666 30.8458 16.6666 27.7778C16.6666 24.7097 19.1541 22.2222 22.2222 22.2222C23.8916 22.2222 76.1083 22.2222 77.7777 22.2222Z" fill="white"/>
</svg>
