<svg width="100" height="100" viewBox="0 0 100 100" fill="none" xmlns="http://www.w3.org/2000/svg">
<path d="M26.3889 20.8333C24.9681 20.8333 23.5443 21.3762 22.4609 22.4609C20.2915 24.6304 20.2915 28.1474 22.4609 30.3168L42.1441 50L22.4609 69.6831C20.2915 71.8526 20.2915 75.3696 22.4609 77.539C23.5443 78.6224 24.9681 79.1666 26.3889 79.1666C27.8097 79.1666 29.2335 78.6238 30.3168 77.539L50 57.8559L69.6832 77.539C71.8498 79.7085 75.371 79.7085 77.5391 77.539C79.7099 75.3682 79.7099 71.854 77.5391 69.6831L57.8559 50L77.5391 30.3168C79.7085 28.1474 79.7085 24.6304 77.5391 22.4609C75.3724 20.2929 71.8498 20.2915 69.6832 22.4609L50 42.1441L30.3168 22.4609C29.2335 21.3776 27.8097 20.8333 26.3889 20.8333Z" fill="white"/>
</svg>
