<svg width="36" height="36" viewBox="0 0 36 36" fill="none" xmlns="http://www.w3.org/2000/svg">
<path fill-rule="evenodd" clip-rule="evenodd" d="M18 33C10.9289 33 7.39339 33 5.1967 30.8032C3 28.6066 3 25.071 3 18C3 10.9289 3 7.39339 5.1967 5.1967C7.39339 3 10.9289 3 18 3C25.071 3 28.6066 3 30.8032 5.1967C33 7.39339 33 10.9289 33 18C33 25.071 33 28.6066 30.8032 30.8032C28.6066 33 25.071 33 18 33Z" fill="url(#paint0_linear_33_31)"/>
<path d="M25.4999 15.1217V15.1761C25.4999 15.8217 25.4999 16.1445 25.3445 16.4086C25.1891 16.6726 24.907 16.8294 24.3427 17.1429L23.7477 17.4735C24.1576 16.0874 24.2944 14.5981 24.3451 13.3245C24.3472 13.2698 24.3496 13.2146 24.3521 13.1587L24.3538 13.1196C24.8423 13.2892 25.1165 13.4157 25.2876 13.653C25.5 13.9477 25.5 14.339 25.4999 15.1217Z" fill="#0E0B29"/>
<path d="M10.5 15.1218V15.1762C10.5 15.8217 10.5 16.1445 10.6554 16.4086C10.8108 16.6727 11.093 16.8294 11.6573 17.1429L12.2526 17.4737C11.8426 16.0875 11.7058 14.5982 11.6552 13.3245C11.653 13.2699 11.6506 13.2146 11.6481 13.1587L11.6464 13.1195C11.1578 13.2892 10.8834 13.4157 10.7123 13.6531C10.5 13.9477 10.5 14.3391 10.5 15.1218Z" fill="#0E0B29"/>
<path fill-rule="evenodd" clip-rule="evenodd" d="M18.0001 10.5C19.3378 10.5 20.4398 10.6178 21.2828 10.7601C22.1369 10.9042 22.5639 10.9762 22.9207 11.4156C23.2775 11.855 23.2586 12.33 23.2209 13.2799C23.0914 16.5409 22.3877 20.614 18.5625 20.9743V23.625H19.6351C19.9927 23.625 20.3005 23.8774 20.3706 24.2279L20.5125 24.9375H22.5C22.8106 24.9375 23.0625 25.1893 23.0625 25.5C23.0625 25.8106 22.8106 26.0625 22.5 26.0625H13.5C13.1893 26.0625 12.9375 25.8106 12.9375 25.5C12.9375 25.1893 13.1893 24.9375 13.5 24.9375H15.4875L15.6294 24.2279C15.6995 23.8774 16.0073 23.625 16.3648 23.625H17.4375V20.9743C13.6125 20.6138 12.9088 16.5408 12.7793 13.2799C12.7416 12.33 12.7227 11.855 13.0795 11.4156C13.4363 10.9762 13.8633 10.9042 14.7174 10.7601C15.5604 10.6178 16.6624 10.5 18.0001 10.5ZM18.7143 13.6492L18.6406 13.5169C18.3556 13.0056 18.2131 12.75 18 12.75C17.7869 12.75 17.6444 13.0056 17.3594 13.5169L17.2857 13.6492C17.2048 13.7944 17.1643 13.8671 17.1011 13.915C17.038 13.9629 16.9594 13.9807 16.8021 14.0163L16.6589 14.0487C16.1055 14.1739 15.8288 14.2365 15.7629 14.4482C15.6971 14.6599 15.8857 14.8805 16.263 15.3217L16.3606 15.4359C16.4678 15.5612 16.5214 15.6239 16.5456 15.7015C16.5697 15.779 16.5616 15.8627 16.5454 16.03L16.5306 16.1822C16.4736 16.7709 16.4451 17.0652 16.6174 17.1961C16.7898 17.3269 17.0488 17.2076 17.567 16.969L17.701 16.9073C17.8483 16.8395 17.9219 16.8056 18 16.8056C18.0781 16.8056 18.1516 16.8395 18.2989 16.9073L18.433 16.969C18.9511 17.2076 19.2102 17.3269 19.3826 17.1961C19.555 17.0652 19.5264 16.7709 19.4694 16.1822L19.4546 16.03C19.4384 15.8627 19.4303 15.779 19.4544 15.7015C19.4785 15.6239 19.5322 15.5612 19.6393 15.4359L19.737 15.3217C20.1142 14.8805 20.3029 14.6599 20.2371 14.4482C20.1712 14.2365 19.8945 14.1739 19.3411 14.0487L19.1979 14.0163C19.0406 13.9807 18.962 13.9629 18.8989 13.915C18.8357 13.8671 18.7952 13.7944 18.7143 13.6492Z" fill="#0E0B29"/>
<defs>
<linearGradient id="paint0_linear_33_31" x1="18" y1="3" x2="18" y2="33" gradientUnits="userSpaceOnUse">
<stop stop-color="#00FF85"/>
<stop offset="1" stop-color="#00FFE0"/>
</linearGradient>
</defs>
</svg>
