<svg width="36" height="36" viewBox="0 0 36 36" fill="none" xmlns="http://www.w3.org/2000/svg">
<path fill-rule="evenodd" clip-rule="evenodd" d="M18 33C10.9289 33 7.39339 33 5.1967 30.8032C3 28.6066 3 25.071 3 18C3 10.9289 3 7.39339 5.1967 5.1967C7.39339 3 10.9289 3 18 3C25.071 3 28.6066 3 30.8032 5.1967C33 7.39339 33 10.9289 33 18C33 25.071 33 28.6066 30.8032 30.8032C28.6066 33 25.071 33 18 33Z" fill="url(#paint0_linear_39_302)"/>
<path d="M24.0408 12.3991C22.9133 11.8766 21.7125 11.4916 20.4475 11.2716C20.2916 11.5466 20.1083 11.9224 19.9891 12.2249C18.6508 12.0233 17.3216 12.0233 16.0108 12.2249C15.8825 11.9224 15.6991 11.5466 15.5433 11.2716C14.2783 11.4916 13.0775 11.8766 11.95 12.3991C9.67665 15.8274 9.06248 19.1733 9.36498 22.4641C10.8775 23.5916 12.335 24.27 13.7741 24.7191C14.1316 24.2333 14.4433 23.7108 14.7183 23.17C14.1958 22.9775 13.7008 22.73 13.2333 22.4458C13.3616 22.3541 13.4808 22.2533 13.6 22.1616C16.4691 23.5 19.5766 23.5 22.4091 22.1616C22.5283 22.2625 22.6475 22.3541 22.7758 22.4458C22.3083 22.73 21.8041 22.9683 21.2908 23.17C21.5658 23.7108 21.8775 24.2333 22.235 24.7191C23.6741 24.27 25.1408 23.5916 26.6441 22.4641C27.0016 18.6416 26.03 15.3324 24.0591 12.3991H24.0408ZM15.1033 20.4475C14.2416 20.4475 13.5358 19.65 13.5358 18.6691C13.5358 17.6883 14.2233 16.8908 15.1033 16.8908C15.9833 16.8908 16.68 17.6883 16.6708 18.6691C16.6708 19.6408 15.9833 20.4475 15.1033 20.4475ZM20.8875 20.4475C20.0258 20.4475 19.32 19.65 19.32 18.6691C19.32 17.6883 20.0075 16.8908 20.8875 16.8908C21.7675 16.8908 22.4641 17.6883 22.455 18.6691C22.455 19.6408 21.7675 20.4475 20.8875 20.4475Z" fill="#0E0B29"/>
<defs>
<linearGradient id="paint0_linear_39_302" x1="18" y1="3" x2="18" y2="33" gradientUnits="userSpaceOnUse">
<stop stop-color="#00FF85"/>
<stop offset="1" stop-color="#00FFE0"/>
</linearGradient>
</defs>
</svg>
