<svg width="25" height="25" viewBox="0 0 25 25" fill="none" xmlns="http://www.w3.org/2000/svg">
<path d="M4.16666 5.20833H7.29166M14.5833 5.20833H20.8333M14.5833 5.20833C14.5833 4.05774 13.6506 3.125 12.5 3.125C11.3494 3.125 10.4167 4.05774 10.4167 5.20833C10.4167 6.35893 11.3494 7.29167 12.5 7.29167C13.6506 7.29167 14.5833 6.35893 14.5833 5.20833ZM10.4167 12.5H16.6667M16.6667 12.5C16.6667 13.6506 17.5994 14.5833 18.75 14.5833C19.9006 14.5833 20.8333 13.6506 20.8333 12.5C20.8333 11.3494 19.9006 10.4167 18.75 10.4167C17.5994 10.4167 16.6667 11.3494 16.6667 12.5ZM4.16666 12.5H7.29166M11.4583 19.7917H20.8333M6.24999 17.7083C7.40058 17.7083 8.33332 18.641 8.33332 19.7917C8.33332 20.9423 7.40058 21.875 6.24999 21.875C5.0994 21.875 4.16666 20.9423 4.16666 19.7917C4.16666 18.641 5.0994 17.7083 6.24999 17.7083Z" stroke="url(#paint0_linear_78_9)" stroke-width="2" stroke-linecap="round"/>
<defs>
<linearGradient id="paint0_linear_78_9" x1="12.5" y1="3.125" x2="12.5" y2="21.875" gradientUnits="userSpaceOnUse">
<stop stop-color="#00FF85"/>
<stop offset="1" stop-color="#00FFE0"/>
</linearGradient>
</defs>
</svg>
