<svg width="36" height="36" viewBox="0 0 36 36" fill="none" xmlns="http://www.w3.org/2000/svg">
<path fill-rule="evenodd" clip-rule="evenodd" d="M18 33C10.9289 33 7.39339 33 5.1967 30.8032C3 28.6066 3 25.071 3 18C3 10.9289 3 7.39339 5.1967 5.1967C7.39339 3 10.9289 3 18 3C25.071 3 28.6066 3 30.8032 5.1967C33 7.39339 33 10.9289 33 18C33 25.071 33 28.6066 30.8032 30.8032C28.6066 33 25.071 33 18 33Z" fill="url(#paint0_linear_111_1069)"/>
<path d="M19.5 12.75C19.5 11.9216 18.8284 11.25 18 11.25C17.1716 11.25 16.5 11.9216 16.5 12.75C16.5 13.5784 17.1716 14.25 18 14.25C18.8284 14.25 19.5 13.5784 19.5 12.75ZM19.5 12.75H24M21 18C21 18.8284 21.6716 19.5 22.5 19.5C23.3284 19.5 24 18.8284 24 18C24 17.1716 23.3284 16.5 22.5 16.5C21.6716 16.5 21 17.1716 21 18ZM21 18H18.75M24 23.25H17.25M12 18H16.5M12 12.75H14.25M13.5 21.75C14.3284 21.75 15 22.4216 15 23.25C15 24.0784 14.3284 24.75 13.5 24.75C12.6716 24.75 12 24.0784 12 23.25C12 22.4216 12.6716 21.75 13.5 21.75Z" stroke="#0E0B29" stroke-width="1.5" stroke-linecap="round"/>
<defs>
<linearGradient id="paint0_linear_111_1069" x1="18" y1="3" x2="18" y2="33" gradientUnits="userSpaceOnUse">
<stop stop-color="#00FF85"/>
<stop offset="1" stop-color="#00FFE0"/>
</linearGradient>
</defs>
</svg>
