<svg width="30" height="30" viewBox="0 0 30 30" fill="none" xmlns="http://www.w3.org/2000/svg">
<path fill-rule="evenodd" clip-rule="evenodd" d="M18.7506 4.0625C19.2684 4.0625 19.6881 4.48224 19.6881 5V6.25C19.6881 7.45812 18.7087 8.4375 17.5006 8.4375H16.2506C16.078 8.4375 15.9381 8.57741 15.9381 8.75V10H16.4651C19.639 10 21.2259 10 22.446 10.7671C22.7547 10.9612 23.0414 11.1886 23.3006 11.445C24.3254 12.4585 24.6866 14.0037 25.409 17.0941L26.687 22.5614C27.1364 24.4832 25.9421 26.4054 24.02 26.8537C22.3991 27.232 20.7319 26.4409 19.9997 24.9461L19.849 24.6382C19.1767 23.2659 17.7819 22.3959 16.2537 22.3959H13.7475C12.2194 22.3959 10.8245 23.2659 10.1523 24.6382L10.0015 24.9461C9.26939 26.4409 7.6021 27.232 5.98124 26.8537C4.05917 26.4054 2.86492 24.4832 3.3142 22.5614L4.59225 17.0941C5.31469 14.0037 5.67591 12.4585 6.70059 11.445C6.95991 11.1886 7.24652 10.9612 7.5553 10.7671C8.7754 10 10.3623 10 13.536 10H14.0631V8.75C14.0631 7.54187 15.0425 6.5625 16.2506 6.5625H17.5006C17.6732 6.5625 17.8131 6.42259 17.8131 6.25V5C17.8131 4.48224 18.2329 4.0625 18.7506 4.0625ZM20.0006 15C20.0006 15.6904 19.441 16.25 18.7506 16.25C18.0602 16.25 17.5006 15.6904 17.5006 15C17.5006 14.3096 18.0602 13.75 18.7506 13.75C19.441 13.75 20.0006 14.3096 20.0006 15ZM10.6256 14.0625C11.1434 14.0625 11.5631 14.4822 11.5631 15V15.9375H12.5006C13.0184 15.9375 13.4381 16.3572 13.4381 16.875C13.4381 17.3927 13.0184 17.8125 12.5006 17.8125H11.5631V18.75C11.5631 19.2677 11.1434 19.6875 10.6256 19.6875C10.1078 19.6875 9.68811 19.2677 9.68811 18.75V17.8125H8.75061C8.23284 17.8125 7.81311 17.3927 7.81311 16.875C7.81311 16.3572 8.23284 15.9375 8.75061 15.9375H9.68811V15C9.68811 14.4822 10.1078 14.0625 10.6256 14.0625ZM21.2506 19.375C21.941 19.375 22.5006 18.8154 22.5006 18.125C22.5006 17.4346 21.941 16.875 21.2506 16.875C20.5602 16.875 20.0006 17.4346 20.0006 18.125C20.0006 18.8154 20.5602 19.375 21.2506 19.375Z" fill="url(#paint0_linear_78_7362)"/>
<defs>
<linearGradient id="paint0_linear_78_7362" x1="15.0006" y1="4.0625" x2="15.0006" y2="26.9476" gradientUnits="userSpaceOnUse">
<stop stop-color="#00FF85"/>
<stop offset="1" stop-color="#00FFE0"/>
</linearGradient>
</defs>
</svg>
