<svg width="36" height="36" viewBox="0 0 36 36" fill="none" xmlns="http://www.w3.org/2000/svg">
<path fill-rule="evenodd" clip-rule="evenodd" d="M18 33C10.9289 33 7.39339 33 5.1967 30.8032C3 28.6066 3 25.071 3 18C3 10.9289 3 7.39339 5.1967 5.1967C7.39339 3 10.9289 3 18 3C25.071 3 28.6066 3 30.8032 5.1967C33 7.39339 33 10.9289 33 18C33 25.071 33 28.6066 30.8032 30.8032C28.6066 33 25.071 33 18 33Z" fill="url(#paint0_linear_39_298)"/>
<g clip-path="url(#clip0_39_298)">
<path fill-rule="evenodd" clip-rule="evenodd" d="M14.2827 9.11046C12.8176 9.17656 11.5477 9.53476 10.5223 10.5558C9.49338 11.5822 9.13963 12.8571 9.07336 14.307C9.03216 15.2119 8.79128 22.0485 9.48979 23.8414C9.96085 25.0509 10.8886 25.9809 12.1092 26.4535C12.6788 26.675 13.3289 26.825 14.2827 26.8688C22.2574 27.2297 25.2136 27.0332 26.4602 23.8414C26.6814 23.2732 26.8336 22.6236 26.8757 21.6722C27.2402 13.677 26.8166 11.944 25.4267 10.5558C24.3243 9.45614 23.0276 8.70757 14.2827 9.11046ZM14.3561 25.2608C13.483 25.2215 13.0092 25.076 12.6931 24.9536C11.8979 24.6445 11.3006 24.0497 10.9934 23.2591C10.4614 21.8968 10.6379 15.4265 10.6853 14.3795C10.7319 13.354 10.9397 12.4167 11.6632 11.6931C12.5588 10.7998 13.7158 10.362 21.5938 10.7175C22.6219 10.764 23.5613 10.9713 24.2867 11.6931C25.1822 12.5864 25.6264 13.7524 25.2646 21.6002C25.2252 22.4711 25.0793 22.9437 24.9566 23.2591C24.1461 25.336 22.2816 25.6244 14.3561 25.2608ZM21.6807 13.2207C21.6807 13.812 22.1616 14.2929 22.7553 14.2929C23.3491 14.2929 23.8309 13.812 23.8309 13.2207C23.8309 12.6293 23.3491 12.1488 22.7553 12.1488C22.1616 12.1488 21.6807 12.6293 21.6807 13.2207ZM13.3764 17.9892C13.3764 20.5226 15.4352 22.5766 17.975 22.5766C20.5147 22.5766 22.5736 20.5226 22.5736 17.9892C22.5736 15.4557 20.5147 13.403 17.975 13.403C15.4352 13.403 13.3764 15.4557 13.3764 17.9892ZM14.9902 17.9892C14.9902 16.3455 16.3263 15.0119 17.975 15.0119C19.6237 15.0119 20.9598 16.3455 20.9598 17.9892C20.9598 19.6338 19.6237 20.9678 17.975 20.9678C16.3263 20.9678 14.9902 19.6338 14.9902 17.9892Z" fill="#0E0B29"/>
</g>
<defs>
<linearGradient id="paint0_linear_39_298" x1="18" y1="3" x2="18" y2="33" gradientUnits="userSpaceOnUse">
<stop stop-color="#00FF85"/>
<stop offset="1" stop-color="#00FFE0"/>
</linearGradient>
<clipPath id="clip0_39_298">
<rect width="18" height="18" fill="white" transform="translate(9 9)"/>
</clipPath>
</defs>
</svg>
