<svg width="16" height="16" viewBox="0 0 16 16" fill="none" xmlns="http://www.w3.org/2000/svg">
<g clip-path="url(#clip0_27_127)">
<mask id="mask0_27_127" style="mask-type:luminance" maskUnits="userSpaceOnUse" x="0" y="0" width="16" height="16">
<path d="M16 0H0V16H16V0Z" fill="white"/>
</mask>
<g mask="url(#mask0_27_127)">
<path fill-rule="evenodd" clip-rule="evenodd" d="M10.454 3.56534C9.3681 3.56534 8.48438 4.44255 8.48438 5.52893C8.48438 6.61532 9.3681 7.49251 10.454 7.49251C11.5398 7.49251 12.4236 6.61532 12.4236 5.52893C12.4236 4.44255 11.5398 3.56534 10.454 3.56534ZM9.48438 5.52893C9.48438 4.99869 9.91658 4.56534 10.454 4.56534C10.9914 4.56534 11.4236 4.99869 11.4236 5.52893C11.4236 6.05919 10.9914 6.49252 10.454 6.49252C9.91658 6.49252 9.48438 6.05919 9.48438 5.52893Z" fill="url(#paint0_linear_27_127)"/>
<path fill-rule="evenodd" clip-rule="evenodd" d="M6.35344 13.9188C6.57545 13.6093 6.64689 13.2952 6.6416 13.0155C6.90305 13.0924 7.16171 13.1021 7.40953 13.0552C7.92179 12.9579 8.30086 12.6341 8.50192 12.3671L8.50545 12.3624L8.50886 12.3577C8.85898 11.8695 8.85825 11.3695 8.77252 11.0109C8.73051 10.8351 8.66819 10.6907 8.61645 10.5897C8.59033 10.5387 8.56612 10.4973 8.54726 10.4669C8.54225 10.4589 8.53766 10.4516 8.53338 10.4451C8.47425 10.3347 8.40752 10.2479 8.35139 10.1824L8.35738 10.1764L8.66685 9.86821C8.92125 9.98988 9.19725 10.0666 9.43898 10.1165C9.82945 10.1974 10.2115 10.2245 10.4539 10.2245C13.0548 10.2245 15.1668 8.12415 15.1668 5.52891C15.1668 2.93365 13.0548 0.833282 10.4539 0.833282C7.85305 0.833282 5.74107 2.93365 5.74107 5.52891C5.74107 6.14028 5.88025 6.66386 6.01737 7.03262C6.05229 7.12648 6.08733 7.21102 6.12035 7.28522L1.28353 12.1023C1.11258 12.2725 0.912047 12.5686 0.851433 12.9394C0.785699 13.3415 0.89366 13.7885 1.28353 14.1769L1.87136 14.7623C1.88042 14.7714 1.88983 14.7801 1.89956 14.7882C2.06935 14.9332 2.35454 15.1008 2.69726 15.1514C3.06487 15.2058 3.4903 15.1212 3.85065 14.7623L4.22833 14.3861C4.58361 14.5898 4.95914 14.6362 5.3064 14.5698C5.75677 14.4835 6.13136 14.2139 6.34654 13.9282L6.35005 13.9235L6.35344 13.9188ZM6.74105 5.52891C6.74105 3.4898 8.40145 1.83329 10.4539 1.83329C12.5064 1.83329 14.1668 3.4898 14.1668 5.52891C14.1668 7.56801 12.5064 9.22455 10.4539 9.22455C10.2718 9.22455 9.95825 9.20289 9.64166 9.13735C9.31038 9.06875 9.05025 8.96689 8.91172 8.85188C8.71338 8.68728 8.42225 8.70049 8.23959 8.88241L7.65172 9.46788C7.51725 9.60181 7.38798 9.75361 7.31972 9.92881C7.23338 10.1507 7.26091 10.3642 7.35972 10.5413C7.41833 10.6464 7.51273 10.7467 7.55198 10.7886L7.56519 10.8027C7.61165 10.854 7.63712 10.8875 7.65572 10.9246L7.67332 10.9597L7.69345 10.9877L7.69799 10.9949C7.70398 11.0046 7.71425 11.0219 7.72646 11.0456C7.75126 11.0941 7.78073 11.1629 7.79993 11.2434C7.83639 11.3957 7.83598 11.577 7.69972 11.77C7.60592 11.8922 7.42839 12.0337 7.22313 12.0727C7.05139 12.1052 6.77152 12.084 6.39793 11.712C6.20285 11.5177 5.88737 11.5177 5.69229 11.712L5.49633 11.9071C5.31177 12.0909 5.29939 12.3854 5.46714 12.584C5.46809 12.5851 5.47065 12.5883 5.47451 12.5935C5.48254 12.6041 5.49571 12.6223 5.51131 12.6469C5.54334 12.6973 5.58097 12.7671 5.60771 12.847C5.65808 12.9975 5.66601 13.1582 5.54438 13.331C5.46441 13.4346 5.30214 13.5524 5.1183 13.5876C4.96205 13.6175 4.76201 13.5954 4.53645 13.3707C4.34137 13.1764 4.02589 13.1764 3.83081 13.3707L3.14499 14.0538C3.03505 14.1632 2.93799 14.1762 2.84349 14.1622C2.73165 14.1457 2.62234 14.0861 2.56064 14.0374L1.98919 13.4683C1.8304 13.3101 1.82406 13.188 1.83834 13.1007C1.85774 12.982 1.93152 12.8683 1.98919 12.8108L7.08538 7.73548C7.24992 7.57162 7.27913 7.31562 7.15565 7.11889L7.15418 7.11649C7.15239 7.11348 7.14891 7.10762 7.14398 7.09908C7.13425 7.08202 7.11885 7.05422 7.09972 7.01668C7.06132 6.94148 7.00825 6.82815 6.95465 6.68408C6.84685 6.39418 6.74105 5.99083 6.74105 5.52891ZM5.46714 12.584C5.46807 12.5851 5.46899 12.5861 5.46992 12.5873L5.46714 12.584Z" fill="url(#paint1_linear_27_127)"/>
</g>
</g>
<defs>
<linearGradient id="paint0_linear_27_127" x1="10.454" y1="3.56534" x2="10.454" y2="7.49251" gradientUnits="userSpaceOnUse">
<stop stop-color="#00FF85"/>
<stop offset="1" stop-color="#00FFE0"/>
</linearGradient>
<linearGradient id="paint1_linear_27_127" x1="8.00014" y1="0.833282" x2="8.00014" y2="15.1665" gradientUnits="userSpaceOnUse">
<stop stop-color="#00FF85"/>
<stop offset="1" stop-color="#00FFE0"/>
</linearGradient>
<clipPath id="clip0_27_127">
<rect width="16" height="16" fill="white"/>
</clipPath>
</defs>
</svg>
