<svg width="36" height="36" viewBox="0 0 36 36" fill="none" xmlns="http://www.w3.org/2000/svg">
<path fill-rule="evenodd" clip-rule="evenodd" d="M18 33C10.9289 33 7.39339 33 5.1967 30.8032C3 28.6066 3 25.071 3 18C3 10.9289 3 7.39339 5.1967 5.1967C7.39339 3 10.9289 3 18 3C25.071 3 28.6066 3 30.8032 5.1967C33 7.39339 33 10.9289 33 18C33 25.071 33 28.6066 30.8032 30.8032C28.6066 33 25.071 33 18 33Z" fill="url(#paint0_linear_252_5)"/>
<path d="M11.88 10.0835C10.6308 10.0835 9.72349 10.8321 9.72349 11.8617C9.72349 12.8949 10.6524 13.6765 11.88 13.6765C13.1292 13.6765 14.0365 12.9134 14.0365 11.8406C13.9789 10.8074 13.0896 10.0835 11.88 10.0835ZM10.08 14.4C9.88197 14.4 9.71997 14.562 9.71997 14.76V25.2C9.71997 25.398 9.88197 25.56 10.08 25.56H13.68C13.878 25.56 14.04 25.398 14.04 25.2V14.76C14.04 14.562 13.878 14.4 13.68 14.4H10.08ZM15.48 14.4C15.282 14.4 15.12 14.562 15.12 14.76V25.2C15.12 25.398 15.282 25.56 15.48 25.56H18.72C18.9187 25.56 19.08 25.3987 19.08 25.2V19.8V19.71V19.62C19.08 18.7668 19.7354 18.0718 20.5706 18.007C20.6138 17.9998 20.6568 18 20.7 18C20.7432 18 20.7861 17.9998 20.8293 18.007C21.6645 18.0718 22.32 18.7668 22.32 19.62V25.2C22.32 25.3987 22.4813 25.56 22.68 25.56H25.92C26.118 25.56 26.28 25.398 26.28 25.2V19.08C26.28 16.7508 25.0304 14.4 22.244 14.4C20.9768 14.4 20.0196 14.8897 19.44 15.2965V14.76C19.44 14.562 19.278 14.4 19.08 14.4H15.48Z" fill="#0E0B29"/>
<defs>
<linearGradient id="paint0_linear_252_5" x1="18" y1="3" x2="18" y2="33" gradientUnits="userSpaceOnUse">
<stop stop-color="#00FF85"/>
<stop offset="1" stop-color="#00FFE0"/>
</linearGradient>
</defs>
</svg>
