<svg width="48" height="48" viewBox="0 0 48 48" fill="none" xmlns="http://www.w3.org/2000/svg">
<path d="M39 25.5C39 26.3265 38.3265 27 37.5 27C36.6735 27 36 26.3265 36 25.5C36 24.6735 36.6735 24 37.5 24C38.3265 24 39 24.6735 39 25.5ZM30 25.5C29.1735 25.5 28.5 26.1735 28.5 27C28.5 27.8265 29.1735 28.5 30 28.5C30.8265 28.5 31.5 27.8265 31.5 27C31.5 26.1735 30.8265 25.5 30 25.5ZM13.5 18H10.5V21H7.5V24H10.5V27H13.5V24H16.5V21H13.5V18ZM30 18C29.1735 18 28.5 18.6735 28.5 19.5C28.5 20.3265 29.1735 21 30 21C30.8265 21 31.5 20.3265 31.5 19.5C31.5 18.6735 30.8265 18 30 18ZM37.5 16.5C36.6735 16.5 36 17.1735 36 18C36 18.8265 36.6735 19.5 37.5 19.5C38.3265 19.5 39 18.8265 39 18C39 17.1735 38.3265 16.5 37.5 16.5ZM48 30C48 35.79 43.29 40.5 37.5 40.5C33.429 40.5 29.745 38.1285 28.0215 34.5H19.977C18.255 38.1285 14.571 40.5 10.5 40.5C4.71 40.5 0 35.79 0 30C0 29.2185 0.0945 28.413 0.282 27.615L3.474 13.7265C4.686 10.002 8.112 7.5 12 7.5C14.5695 7.5 16.962 8.5845 18.6735 10.5H29.3265C31.038 8.5845 33.4305 7.5 36 7.5C39.888 7.5 43.314 10.002 44.526 13.7265L47.7165 27.609C47.9055 28.413 48 29.2185 48 30ZM18 21C18 20.172 17.328 19.5 16.5 19.5H15V18C15 17.172 14.328 16.5 13.5 16.5H10.5C9.672 16.5 9 17.172 9 18V19.5H7.5C6.672 19.5 6 20.172 6 21V24C6 24.828 6.672 25.5 7.5 25.5H9V27C9 27.828 9.672 28.5 10.5 28.5H13.5C14.328 28.5 15 27.828 15 27V25.5H16.5C17.328 25.5 18 24.828 18 24V21ZM33 27C33 25.3425 31.6575 24 30 24C28.3425 24 27 25.3425 27 27C27 28.6575 28.3425 30 30 30C31.6575 30 33 28.6575 33 27ZM33 19.5C33 17.8425 31.6575 16.5 30 16.5C28.3425 16.5 27 17.8425 27 19.5C27 21.1575 28.3425 22.5 30 22.5C31.6575 22.5 33 21.1575 33 19.5ZM40.5 25.5C40.5 23.8425 39.1575 22.5 37.5 22.5C35.8425 22.5 34.5 23.8425 34.5 25.5C34.5 27.1575 35.8425 28.5 37.5 28.5C39.1575 28.5 40.5 27.1575 40.5 25.5ZM40.5 18C40.5 16.3425 39.1575 15 37.5 15C35.8425 15 34.5 16.3425 34.5 18C34.5 19.6575 35.8425 21 37.5 21C39.1575 21 40.5 19.6575 40.5 18Z" fill="url(#paint0_linear_78_7397)"/>
<defs>
<linearGradient id="paint0_linear_78_7397" x1="24" y1="7.5" x2="24" y2="40.5" gradientUnits="userSpaceOnUse">
<stop stop-color="#00FF85"/>
<stop offset="1" stop-color="#00FFE0"/>
</linearGradient>
</defs>
</svg>
