<svg width="30" height="30" viewBox="0 0 30 30" fill="none" xmlns="http://www.w3.org/2000/svg">
<path fill-rule="evenodd" clip-rule="evenodd" d="M15.0645 2.5H14.9355C12.8352 2.49999 11.1716 2.49996 9.86969 2.67806C8.52977 2.86135 7.44526 3.24754 6.58999 4.11773C5.73472 4.98791 5.35516 6.09135 5.17501 7.45463C4.99996 8.77929 4.99999 10.4719 5 12.6087V17.3911C4.99999 19.5281 4.99996 21.2208 5.17501 22.5454C5.35516 23.9086 5.73472 25.0121 6.58999 25.8822C7.44526 26.7525 8.52977 27.1386 9.86969 27.3219C11.1716 27.5 12.8352 27.5 14.9355 27.5H15.0645C17.1647 27.5 18.8284 27.5 20.1304 27.3219C21.4702 27.1386 22.5547 26.7525 23.41 25.8822C24.2652 25.0121 24.6449 23.9086 24.825 22.5454C25 21.2208 25 19.5281 25 17.3913V12.6089C25 10.4719 25 8.77929 24.825 7.45463C24.6449 6.09135 24.2652 4.98791 23.41 4.11773C22.5547 3.24754 21.4702 2.86135 20.1304 2.67806C18.8284 2.49996 17.1647 2.49999 15.0645 2.5ZM10.7143 23.1395C10.7143 22.6579 11.098 22.2675 11.5714 22.2675H18.4286C18.902 22.2675 19.2857 22.6579 19.2857 23.1395C19.2857 23.6211 18.902 24.0116 18.4286 24.0116H11.5714C11.098 24.0116 10.7143 23.6211 10.7143 23.1395Z" fill="url(#paint0_linear_78_7383)"/>
<defs>
<linearGradient id="paint0_linear_78_7383" x1="15" y1="2.5" x2="15" y2="27.5" gradientUnits="userSpaceOnUse">
<stop stop-color="#00FF85"/>
<stop offset="1" stop-color="#00FFE0"/>
</linearGradient>
</defs>
</svg>
