<svg width="127" height="127" viewBox="0 0 127 127" fill="none" xmlns="http://www.w3.org/2000/svg">
<g clip-path="url(#clip0_33_59)">
<path d="M121.975 69.963C123.12 68.4916 123.676 66.595 123.169 64.6605L108.144 7.71093C107.272 4.41924 103.888 2.4466 100.602 3.31847L4.59407 28.6323C1.3188 29.4989 -0.659394 32.8942 0.201614 36.1803L15.2266 93.1243C16.0876 96.4105 19.4881 98.3833 22.7745 97.5223L56.699 88.574V107.642C56.699 118.308 74.3724 123.888 91.8442 123.888C109.305 123.888 127 118.308 127 107.643V78.7262C127 75.2546 125.098 72.3336 121.975 69.963ZM111.103 50.3331L112.673 56.2624L93.5877 61.3034L92.0291 55.3632L111.103 50.3331ZM100.029 12.8174L103.01 24.1092L73.1948 31.9786L70.2139 20.6867L100.029 12.8174ZM86.6503 56.7801L88.1763 62.5785C81.119 62.8945 74.2524 64.1262 68.7372 66.2297L67.571 61.8264L86.6503 56.7801ZM20.2074 80.6498L18.6489 74.7314L37.7282 69.6848L39.2977 75.6358L20.2074 80.6498ZM43.1073 68.2736L62.1758 63.2326L63.6199 68.6659C63.1565 68.9494 62.7207 69.2435 62.2955 69.5434L44.6658 74.1973L43.1073 68.2736ZM120.635 107.174C120.635 113.392 107.752 118.427 91.8442 118.427C75.9529 118.427 63.0588 113.386 63.0588 107.174V100.171C63.0588 99.9363 63.1949 99.7239 63.2331 99.5005C64.1431 105.397 76.5358 110.073 91.8442 110.073C107.158 110.073 119.556 105.397 120.461 99.5005C120.499 99.7239 120.635 99.9366 120.635 100.171V107.174ZM120.635 93.3967C120.635 99.6094 107.752 104.645 91.8442 104.645C75.9529 104.645 63.0588 99.6094 63.0588 93.3967V86.3939C63.0588 86.165 63.1949 85.947 63.2331 85.7236C64.1431 91.6148 76.5358 96.3016 91.8442 96.3016C107.158 96.3016 119.556 91.6148 120.461 85.7236C120.499 85.947 120.635 86.165 120.635 86.3939V93.3967ZM91.8439 89.9688C75.9527 89.9688 63.0585 84.9334 63.0585 78.7259C63.0585 72.5187 75.9524 67.4833 91.8439 67.4833C107.752 67.4833 120.635 72.5187 120.635 78.7259C120.635 84.9334 107.752 89.9688 91.8439 89.9688Z" fill="url(#paint0_linear_33_59)"/>
</g>
<defs>
<linearGradient id="paint0_linear_33_59" x1="63.5001" y1="3.11218" x2="63.5001" y2="123.888" gradientUnits="userSpaceOnUse">
<stop stop-color="#00FF85"/>
<stop offset="1" stop-color="#00FFE0"/>
</linearGradient>
<clipPath id="clip0_33_59">
<rect width="127" height="127" fill="white"/>
</clipPath>
</defs>
</svg>
