<svg width="36" height="36" viewBox="0 0 36 36" fill="none" xmlns="http://www.w3.org/2000/svg">
<path fill-rule="evenodd" clip-rule="evenodd" d="M18 33C10.9289 33 7.39339 33 5.1967 30.8032C3 28.6066 3 25.071 3 18C3 10.9289 3 7.39339 5.1967 5.1967C7.39339 3 10.9289 3 18 3C25.071 3 28.6066 3 30.8032 5.1967C33 7.39339 33 10.9289 33 18C33 25.071 33 28.6066 30.8032 30.8032C28.6066 33 25.071 33 18 33Z" fill="url(#paint0_linear_34_271)"/>
<path fill-rule="evenodd" clip-rule="evenodd" d="M10.7609 20.2497C10.8992 19.9334 11.2677 19.7892 11.584 19.9276L15.7506 21.7505C16.0669 21.8888 16.2111 22.2573 16.0727 22.5736C15.9344 22.8898 15.5659 23.034 15.2496 22.8957L11.083 21.0728C10.7667 20.9344 10.6225 20.5659 10.7609 20.2497ZM25.2394 20.2497C25.3777 20.5659 25.2336 20.9344 24.9173 21.0728L11.584 26.9061C11.2677 27.0444 10.8992 26.9003 10.7609 26.584C10.6225 26.2678 10.7667 25.8993 11.083 25.7609L24.4163 19.9276C24.7326 19.7892 25.1011 19.9334 25.2394 20.2497ZM19.5109 24.0778C19.6492 23.7615 20.0177 23.6173 20.334 23.7557L24.9173 25.7609C25.2336 25.8993 25.3777 26.2678 25.2394 26.584C25.1011 26.9003 24.7326 27.0444 24.4163 26.9061L19.833 24.9009C19.5167 24.7625 19.3725 24.394 19.5109 24.0778Z" fill="#0E0B29"/>
<path fill-rule="evenodd" clip-rule="evenodd" d="M17.6667 20.5C19.4444 20.5 23 19.4679 23 15.3395C23 12.8133 21.4593 10.9812 20.0007 9.88716C19.2525 9.32589 18.2941 9.90803 18.2941 10.8241C18.2941 11.4431 18.1187 12.4718 17.633 13.2333C17.0647 14.1245 16.1261 13.3508 15.9775 12.3135C15.9029 11.7933 15.3303 11.5782 14.8842 11.8773C14.007 12.4652 13 13.5918 13 15.3395C13 19.4679 16.1111 20.5 17.6667 20.5ZM20.6796 15.7347C21.0103 15.8339 21.1978 16.1823 21.0987 16.5129C20.8746 17.2599 19.9453 18.625 18 18.625C17.6548 18.625 17.375 18.3452 17.375 18C17.375 17.6548 17.6548 17.375 18 17.375C19.2547 17.375 19.7921 16.5179 19.9013 16.1537C20.0006 15.8231 20.349 15.6355 20.6796 15.7347Z" fill="#0E0B29"/>
<defs>
<linearGradient id="paint0_linear_34_271" x1="18" y1="3" x2="18" y2="33" gradientUnits="userSpaceOnUse">
<stop stop-color="#00FF85"/>
<stop offset="1" stop-color="#00FFE0"/>
</linearGradient>
</defs>
</svg>
