<svg width="36" height="36" viewBox="0 0 36 36" fill="none" xmlns="http://www.w3.org/2000/svg">
<path fill-rule="evenodd" clip-rule="evenodd" d="M18 33C10.9289 33 7.39339 33 5.1967 30.8032C3 28.6066 3 25.071 3 18C3 10.9289 3 7.39339 5.1967 5.1967C7.39339 3 10.9289 3 18 3C25.071 3 28.6066 3 30.8032 5.1967C33 7.39339 33 10.9289 33 18C33 25.071 33 28.6066 30.8032 30.8032C28.6066 33 25.071 33 18 33Z" fill="url(#paint0_linear_33_24)"/>
<path d="M12.9728 16.3437L15.4045 13.0537C16.9764 10.927 17.7623 9.86365 18.4956 10.0884C19.2288 10.3131 19.2288 11.6173 19.2288 14.2256V14.4716C19.2288 15.4124 19.2288 15.8828 19.5294 16.1778L19.5453 16.1931C19.8524 16.4819 20.342 16.482 21.3211 16.482C23.0832 16.482 23.9643 16.482 24.262 17.0163C24.2669 17.0251 24.2717 17.0341 24.2764 17.0431C24.5575 17.5858 24.0473 18.2759 23.0271 19.6563L20.5954 22.9463C19.0235 25.073 18.2376 26.1364 17.5043 25.9116C16.7711 25.6869 16.7711 24.3827 16.7711 21.7743L16.7712 21.5285C16.7712 20.5876 16.7712 20.1173 16.4705 19.8222L16.4546 19.8069C16.1475 19.5181 15.658 19.5181 14.6788 19.5181C12.9167 19.5181 12.0357 19.5181 11.738 18.9837C11.733 18.9748 11.7282 18.966 11.7236 18.9569C11.4425 18.4143 11.9526 17.7241 12.9728 16.3437Z" fill="#0E0B29"/>
<defs>
<linearGradient id="paint0_linear_33_24" x1="18" y1="3" x2="18" y2="33" gradientUnits="userSpaceOnUse">
<stop stop-color="#00FF85"/>
<stop offset="1" stop-color="#00FFE0"/>
</linearGradient>
</defs>
</svg>
