<svg width="36" height="36" viewBox="0 0 36 36" fill="none" xmlns="http://www.w3.org/2000/svg">
<path fill-rule="evenodd" clip-rule="evenodd" d="M18 33C10.9289 33 7.39339 33 5.1967 30.8032C3 28.6066 3 25.071 3 18C3 10.9289 3 7.39339 5.1967 5.1967C7.39339 3 10.9289 3 18 3C25.071 3 28.6066 3 30.8032 5.1967C33 7.39339 33 10.9289 33 18C33 25.071 33 28.6066 30.8032 30.8032C28.6066 33 25.071 33 18 33Z" fill="url(#paint0_linear_253_40)"/>
<path fill-rule="evenodd" clip-rule="evenodd" d="M20.7261 20.4729C20.0403 20.4729 19.4652 19.9098 19.4652 19.2152C19.4652 18.5196 20.0403 17.9381 20.7261 17.9381C21.411 17.9381 21.9663 18.5196 21.9663 19.2152C21.9663 19.9098 21.4119 20.4729 20.7261 20.4729ZM20.9007 22.7967C20.295 23.4101 19.3455 23.7086 17.9991 23.7086C16.6518 23.7086 15.7032 23.4101 15.0984 22.7967C14.967 22.6635 14.967 22.448 15.0984 22.3138C15.2289 22.1805 15.4422 22.1805 15.5736 22.3138C16.0461 22.793 16.839 23.0266 17.9991 23.0266C19.1583 23.0266 19.9521 22.793 20.4255 22.3138C20.556 22.1805 20.7693 22.1805 20.9007 22.3138C21.0321 22.448 21.0321 22.6635 20.9007 22.7967ZM14.0328 19.2152C14.0328 18.5206 14.607 17.9381 15.2919 17.9381C15.9768 17.9381 16.5321 18.5206 16.5321 19.2152C16.5321 19.9098 15.9768 20.4729 15.2919 20.4729C14.607 20.4729 14.0328 19.9098 14.0328 19.2152ZM27 17.8322C27 16.6922 26.0856 15.7646 24.9615 15.7646C24.4431 15.7646 23.9544 15.9607 23.58 16.3122C22.2345 15.424 20.4327 14.8499 18.4374 14.7714L19.5381 11.3644L22.4289 12.0543C22.4298 12.9926 23.1822 13.755 24.1074 13.755C25.0326 13.755 25.7859 12.9909 25.7859 12.0525C25.7859 11.1142 25.0326 10.3501 24.1074 10.3501C23.4144 10.3501 22.8195 10.7771 22.563 11.3859C21.9402 11.2371 19.7136 10.705 19.0908 10.5562L17.7318 14.7644C15.6609 14.8037 13.7844 15.3749 12.3885 16.284C12.0186 15.9509 11.5398 15.7646 11.0376 15.7646C9.9144 15.7646 9 16.6922 9 17.8322C9 18.5561 9.3726 19.2194 9.9684 19.5918C9.4257 22.8431 13.203 25.6501 17.9622 25.6501C22.7016 25.6501 26.4663 22.868 25.9641 19.6331C26.6013 19.2707 27 18.5917 27 17.8322Z" fill="#0E0B29"/>
<defs>
<linearGradient id="paint0_linear_253_40" x1="18" y1="3" x2="18" y2="33" gradientUnits="userSpaceOnUse">
<stop stop-color="#00FF85"/>
<stop offset="1" stop-color="#00FFE0"/>
</linearGradient>
</defs>
</svg>
