<svg width="127" height="127" viewBox="0 0 127 127" fill="none" xmlns="http://www.w3.org/2000/svg">
<path fill-rule="evenodd" clip-rule="evenodd" d="M17.8727 26.8944C15.875 29.7406 15.875 38.2009 15.875 55.1217V63.4545C15.875 93.2889 38.3062 107.767 52.3799 113.915C56.1975 115.583 58.1062 116.417 63.5 116.417C68.8938 116.417 70.8025 115.583 74.6199 113.915C88.6936 107.767 111.125 93.2889 111.125 63.4545V55.1217C111.125 38.2009 111.125 29.7406 109.127 26.8944C107.13 24.0482 99.1748 21.3252 83.2649 15.8792L80.2338 14.8416C71.9402 12.0027 67.7937 10.5833 63.5 10.5833C59.2063 10.5833 55.0598 12.0027 46.7663 14.8416L43.7351 15.8792C27.8253 21.3252 19.8704 24.0482 17.8727 26.8944ZM79.6898 55.5598C81.1493 53.9247 81.0075 51.416 79.3724 49.9562C77.7372 48.4964 75.2285 48.6384 73.7685 50.2734L57.8305 68.1244L53.2315 62.9735C51.7714 61.3383 49.2626 61.1965 47.6276 62.656C45.9926 64.1159 45.8505 66.6247 47.3104 68.2598L54.8698 76.7265C55.6228 77.57 56.6997 78.0521 57.8305 78.0521C58.9608 78.0521 60.0377 77.57 60.7907 76.7265L79.6898 55.5598Z" fill="url(#paint0_linear_33_49)"/>
<defs>
<linearGradient id="paint0_linear_33_49" x1="63.5" y1="10.5833" x2="63.5" y2="116.417" gradientUnits="userSpaceOnUse">
<stop stop-color="#00FF85"/>
<stop offset="1" stop-color="#00FFE0"/>
</linearGradient>
</defs>
</svg>
