<svg width="30" height="30" viewBox="0 0 30 30" fill="none" xmlns="http://www.w3.org/2000/svg">
<path fill-rule="evenodd" clip-rule="evenodd" d="M15 27.5C9.10744 27.5 6.16116 27.5 4.33059 25.6694C2.5 23.8389 2.5 20.8925 2.5 15C2.5 9.10744 2.5 6.16116 4.33059 4.33059C6.16116 2.5 9.10744 2.5 15 2.5C20.8925 2.5 23.8389 2.5 25.6694 4.33059C27.5 6.16116 27.5 9.10744 27.5 15C27.5 20.8925 27.5 23.8389 25.6694 25.6694C23.8389 27.5 20.8925 27.5 15 27.5ZM11.4975 9.0625H11.6275C12.7506 9.06246 13.6871 9.06244 14.4306 9.16239C15.2154 9.2679 15.9239 9.49999 16.4931 10.0693C17.0625 10.6387 17.2946 11.3472 17.4001 12.1319C17.5001 12.8754 17.5 13.8119 17.5 14.935V15C17.5 15.5177 17.0802 15.9375 16.5625 15.9375C16.0447 15.9375 15.625 15.5177 15.625 15C15.625 13.795 15.623 12.9855 15.5419 12.3817C15.4642 11.8049 15.3302 11.558 15.1674 11.3951C15.0045 11.2322 14.7576 11.0982 14.1807 11.0207C13.577 10.9395 12.7675 10.9375 11.5625 10.9375C10.3575 10.9375 9.54804 10.9395 8.94424 11.0207C8.36741 11.0982 8.12055 11.2322 7.95765 11.3951C7.79475 11.558 7.66072 11.8049 7.58317 12.3817C7.502 12.9855 7.5 13.795 7.5 15C7.5 16.205 7.502 17.0145 7.58317 17.6182C7.66072 18.1951 7.79475 18.442 7.95765 18.6049C8.12055 18.7677 8.36741 18.9017 8.94424 18.9794C9.54804 19.0605 10.3575 19.0625 11.5625 19.0625C12.0803 19.0625 12.5 19.4822 12.5 20C12.5 20.5177 12.0803 20.9375 11.5625 20.9375H11.4975C10.3744 20.9375 9.43787 20.9376 8.6944 20.8376C7.90966 20.7321 7.20116 20.5 6.63182 19.9306C6.06249 19.3614 5.8304 18.6529 5.72489 17.8681C5.62494 17.1246 5.62496 16.1881 5.625 15.065V14.935C5.62496 13.8119 5.62494 12.8754 5.72489 12.1319C5.8304 11.3472 6.06249 10.6387 6.63182 10.0693C7.20116 9.49999 7.90966 9.2679 8.6944 9.16239C9.43786 9.06244 10.3744 9.06246 11.4975 9.0625ZM21.0557 11.0207C20.452 10.9395 19.6425 10.9375 18.4375 10.9375C17.9197 10.9375 17.5 10.5178 17.5 10C17.5 9.48224 17.9197 9.0625 18.4375 9.0625H18.5025C19.6256 9.06246 20.5621 9.06244 21.3056 9.16239C22.0904 9.2679 22.7989 9.49999 23.3681 10.0693C23.9375 10.6387 24.1696 11.3472 24.2751 12.1319C24.3751 12.8754 24.375 13.8119 24.375 14.9349V15.065C24.375 16.1881 24.3751 17.1246 24.2751 17.8681C24.1696 18.6529 23.9375 19.3614 23.3681 19.9306C22.7989 20.5 22.0904 20.7321 21.3056 20.8376C20.5621 20.9376 19.6256 20.9375 18.5025 20.9375H18.3725C17.2494 20.9375 16.3129 20.9376 15.5694 20.8376C14.7846 20.7321 14.0761 20.5 13.5069 19.9306C12.9375 19.3614 12.7054 18.6529 12.5999 17.8681C12.4999 17.1246 12.5 16.1881 12.5 15.065V15C12.5 14.4822 12.9197 14.0625 13.4375 14.0625C13.9552 14.0625 14.375 14.4822 14.375 15C14.375 16.205 14.377 17.0145 14.4581 17.6182C14.5357 18.1951 14.6697 18.442 14.8326 18.6049C14.9955 18.7677 15.2424 18.9017 15.8192 18.9794C16.423 19.0605 17.2325 19.0625 18.4375 19.0625C19.6425 19.0625 20.452 19.0605 21.0557 18.9794C21.6326 18.9017 21.8795 18.7677 22.0424 18.6049C22.2052 18.442 22.3392 18.1951 22.4169 17.6182C22.498 17.0145 22.5 16.205 22.5 15C22.5 13.795 22.498 12.9855 22.4169 12.3817C22.3392 11.8049 22.2052 11.558 22.0424 11.3951C21.8795 11.2322 21.6326 11.0982 21.0557 11.0207Z" fill="url(#paint0_linear_78_7377)"/>
<defs>
<linearGradient id="paint0_linear_78_7377" x1="15" y1="2.5" x2="15" y2="27.5" gradientUnits="userSpaceOnUse">
<stop stop-color="#00FF85"/>
<stop offset="1" stop-color="#00FFE0"/>
</linearGradient>
</defs>
</svg>
