<svg width="30" height="30" viewBox="0 0 30 30" fill="none" xmlns="http://www.w3.org/2000/svg">
<path fill-rule="evenodd" clip-rule="evenodd" d="M3.96446 24.7855C5.42894 26.25 7.78595 26.25 12.5 26.25H17.4115C17.0679 25.659 16.875 24.974 16.875 24.2648C16.875 23.2448 17.2739 22.2749 17.9464 21.5625H16.875C16.3572 21.5625 15.9375 21.1428 15.9375 20.625C15.9375 20.1072 16.3572 19.6875 16.875 19.6875H19.2852C19.9244 18.0751 21.4436 16.875 23.3334 16.875C25.2841 16.875 26.8452 18.1604 27.4437 19.8506L27.4617 19.8631C27.5 18.8409 27.5 17.6493 27.5 16.25V15.9375H2.5V16.25C2.5 20.964 2.5 23.3211 3.96446 24.7855ZM7.5 22.8125C6.98224 22.8125 6.5625 22.3928 6.5625 21.875V19.375C6.5625 18.8572 6.98224 18.4375 7.5 18.4375C8.01776 18.4375 8.4375 18.8572 8.4375 19.375V21.875C8.4375 22.3928 8.01776 22.8125 7.5 22.8125ZM11.25 22.8125C10.7322 22.8125 10.3125 22.3928 10.3125 21.875V19.375C10.3125 18.8572 10.7322 18.4375 11.25 18.4375C11.7678 18.4375 12.1875 18.8572 12.1875 19.375V21.875C12.1875 22.3928 11.7678 22.8125 11.25 22.8125Z" fill="url(#paint0_linear_78_7368)"/>
<path fill-rule="evenodd" clip-rule="evenodd" d="M3.96446 5.21446C2.5 6.67894 2.5 9.03595 2.5 13.75V14.0625H27.5V13.75C27.5 9.03595 27.5 6.67894 26.0355 5.21446C24.5711 3.75 22.214 3.75 17.5 3.75H12.5C7.78595 3.75 5.42894 3.75 3.96446 5.21446ZM11.25 11.5625C10.7322 11.5625 10.3125 11.1428 10.3125 10.625V8.125C10.3125 7.60724 10.7322 7.1875 11.25 7.1875C11.7678 7.1875 12.1875 7.60724 12.1875 8.125V10.625C12.1875 11.1428 11.7678 11.5625 11.25 11.5625ZM6.5625 10.625C6.5625 11.1428 6.98224 11.5625 7.5 11.5625C8.01776 11.5625 8.4375 11.1428 8.4375 10.625V8.125C8.4375 7.60724 8.01776 7.1875 7.5 7.1875C6.98224 7.1875 6.5625 7.60724 6.5625 8.125V10.625ZM15.9375 9.375C15.9375 8.85724 16.3572 8.4375 16.875 8.4375H22.5C23.0177 8.4375 23.4375 8.85724 23.4375 9.375C23.4375 9.89276 23.0177 10.3125 22.5 10.3125H16.875C16.3572 10.3125 15.9375 9.89276 15.9375 9.375Z" fill="url(#paint1_linear_78_7368)"/>
<path fill-rule="evenodd" clip-rule="evenodd" d="M25.8179 21.1007C25.6788 19.7783 24.6195 18.75 23.3334 18.75C22.277 18.75 21.3736 19.4438 21.0075 20.4244C20.8951 20.7255 20.8334 21.0536 20.8334 21.397C20.8334 21.7204 20.8881 22.0303 20.9884 22.3166C20.8708 22.2923 20.7492 22.2794 20.625 22.2794C20.0751 22.2794 19.5805 22.53 19.2376 22.9292C18.9346 23.2819 18.75 23.7505 18.75 24.2648C18.75 25.3611 19.5895 26.25 20.625 26.25H25C26.3807 26.25 27.5 25.0649 27.5 23.603C27.5 22.4443 26.7969 21.4595 25.8179 21.1007Z" fill="url(#paint2_linear_78_7368)"/>
<path d="M25.8179 21.1007C25.6788 19.7783 24.6195 18.75 23.3334 18.75C22.277 18.75 21.3736 19.4438 21.0075 20.4244C20.8951 20.7255 20.8334 21.0536 20.8334 21.397C20.8334 21.7204 20.8881 22.0303 20.9884 22.3166C20.8708 22.2923 20.7492 22.2794 20.625 22.2794C20.0751 22.2794 19.5805 22.53 19.2376 22.9292C18.9346 23.2819 18.75 23.7505 18.75 24.2648C18.75 25.3611 19.5895 26.25 20.625 26.25H25C26.3807 26.25 27.5 25.0649 27.5 23.603C27.5 22.4443 26.7969 21.4595 25.8179 21.1007Z" fill="url(#paint3_linear_78_7368)"/>
<defs>
<linearGradient id="paint0_linear_78_7368" x1="15" y1="15.9375" x2="15" y2="26.25" gradientUnits="userSpaceOnUse">
<stop stop-color="#00FF85"/>
<stop offset="1" stop-color="#00FFE0"/>
</linearGradient>
<linearGradient id="paint1_linear_78_7368" x1="15" y1="3.75" x2="15" y2="14.0625" gradientUnits="userSpaceOnUse">
<stop stop-color="#00FF85"/>
<stop offset="1" stop-color="#00FFE0"/>
</linearGradient>
<linearGradient id="paint2_linear_78_7368" x1="23.125" y1="18.75" x2="23.125" y2="26.25" gradientUnits="userSpaceOnUse">
<stop stop-color="#00FF85"/>
<stop offset="1" stop-color="#00FFE0"/>
</linearGradient>
<linearGradient id="paint3_linear_78_7368" x1="23.125" y1="18.75" x2="23.125" y2="26.25" gradientUnits="userSpaceOnUse">
<stop stop-color="#00FF85"/>
<stop offset="1" stop-color="#00FFE0"/>
</linearGradient>
</defs>
</svg>
