<svg width="800" height="800" viewBox="0 0 800 800" fill="none" xmlns="http://www.w3.org/2000/svg">
<path d="M433.333 500L533.333 400M533.333 400L433.333 300M533.333 400H266.667M240 666.667H560C597.337 666.667 616.007 666.667 630.267 659.4C642.81 653.01 653.01 642.81 659.4 630.267C666.667 616.007 666.667 597.337 666.667 560V240C666.667 202.663 666.667 183.995 659.4 169.734C653.01 157.19 642.81 146.991 630.267 140.6C616.007 133.333 597.337 133.333 560 133.333H240C202.663 133.333 183.995 133.333 169.734 140.6C157.19 146.991 146.991 157.19 140.6 169.734C133.333 183.995 133.333 202.663 133.333 240V560C133.333 597.337 133.333 616.007 140.6 630.267C146.991 642.81 157.19 653.01 169.734 659.4C183.995 666.667 202.663 666.667 240 666.667Z" stroke="url(#paint0_linear_119_3)" stroke-width="66.6667" stroke-linecap="round" stroke-linejoin="round"/>
<defs>
<linearGradient id="paint0_linear_119_3" x1="400" y1="133.333" x2="400" y2="666.667" gradientUnits="userSpaceOnUse">
<stop stop-color="#00FF85"/>
<stop offset="1" stop-color="#00FFE0"/>
</linearGradient>
</defs>
</svg>
