<svg width="16" height="16" viewBox="0 0 16 16" fill="none" xmlns="http://www.w3.org/2000/svg">
<g clip-path="url(#clip0_27_135)">
<path d="M15.6995 5.93424C15.582 5.5845 15.2792 5.3295 14.9147 5.27374L10.6725 4.6255L8.76697 0.56625C8.60447 0.22025 8.25721 0 7.87571 0C7.49397 0 7.14697 0.22025 6.98447 0.56625L5.07871 4.62576L0.836467 5.274C0.471967 5.32976 0.169217 5.5845 0.0519673 5.9345C-0.0652827 6.2845 0.0232173 6.67 0.280967 6.9345L3.37897 10.1112L2.64521 14.6055C2.58471 14.9775 2.74247 15.3515 3.05021 15.569C3.35771 15.7865 3.76371 15.8085 4.09447 15.626L7.87597 13.5347L11.6575 15.626C11.8067 15.7085 11.971 15.749 12.1345 15.749C12.3335 15.749 12.5325 15.6885 12.7017 15.569C13.0095 15.3518 13.167 14.9778 13.1065 14.6055L12.3727 10.1112L15.471 6.9345C15.7282 6.67 15.8167 6.2845 15.6995 5.93424Z" fill="#FFC700"/>
</g>
<defs>
<clipPath id="clip0_27_135">
<rect width="16" height="16" fill="white"/>
</clipPath>
</defs>
</svg>
