<svg width="127" height="127" viewBox="0 0 127 127" fill="none" xmlns="http://www.w3.org/2000/svg">
<g clip-path="url(#clip0_33_78)">
<path d="M95.1016 80.5969C93.6536 83.9452 91.4775 87.1206 88.6057 90.0242L87.5518 91.0901L84.0073 114.668L65.7323 102.105L63.8571 102.455C60.3792 103.106 56.7938 103.435 53.2006 103.435C28.9336 103.435 9.19101 88.6853 9.19101 70.5547C9.19101 52.984 27.7336 38.5884 50.9665 37.7164C49.0303 34.8953 47.3198 32.1536 45.8995 29.5638C45.7801 29.3484 45.6683 29.1305 45.5564 28.9127C34.4494 30.1655 24.1654 34.1406 16.0259 40.4166C5.69142 48.3846 0 59.0878 0 70.5551C0 82.022 5.69142 92.7252 16.0255 100.693C26.0056 108.388 39.2077 112.626 53.1999 112.626C56.7056 112.626 60.2073 112.354 63.6365 111.817L80.8213 123.63C82.1037 124.511 83.6032 124.976 85.1576 124.976C86.2125 124.976 87.2386 124.763 88.2071 124.343C90.6428 123.286 92.3338 121.087 92.7314 118.456L96.2005 95.3781C99.2287 92.1036 101.606 88.5549 103.302 84.8114C102.005 84.3737 100.747 83.8275 99.5443 83.1719C98.0407 82.3568 96.5593 81.494 95.1016 80.5969Z" fill="url(#paint0_linear_33_78)"/>
<path d="M125.334 59.2165L113.981 47.8642C112.907 46.7904 111.479 46.1989 109.96 46.1989C109.768 46.1989 109.577 46.2086 109.394 46.2274C106.26 46.5441 103.325 47.7486 100.901 49.7116C100.525 50.0169 100.046 50.186 99.5525 50.186C99.0685 50.186 98.595 50.0214 98.2197 49.7226C91.2603 44.1203 84.901 37.7572 79.3114 30.804C78.6847 30.0239 78.6871 28.8941 79.3162 28.1164C81.2782 25.6934 82.4817 22.7595 82.7966 19.6321C82.9678 17.9268 82.3716 16.2536 81.1599 15.0416L69.8065 3.68859C68.7327 2.61515 67.3053 2.02405 65.7889 2.02405C65.6047 2.02405 65.4184 2.03331 65.2349 2.05149C61.5617 2.41068 58.0954 4.05224 55.4737 6.67359C50.4361 11.7118 49.3222 19.5662 52.7652 25.7743C61.6296 41.9477 82.95 65.2575 103.292 76.2829C105.629 77.5584 108.28 78.2315 110.962 78.2315C115.225 78.2315 119.376 76.5254 122.35 73.5507C124.971 70.93 126.613 67.4637 126.973 63.7902C127.14 62.0924 126.543 60.4258 125.334 59.2165Z" fill="url(#paint1_linear_33_78)"/>
<path d="M31.0939 71.1225L24.8635 78.0455C24.6097 78.3279 24.4683 78.6946 24.4683 79.0747V79.7207C24.4683 80.5705 25.1572 81.2594 26.0066 81.2594H36.5297C37.3795 81.2594 38.068 80.5701 38.068 79.7207V79.2596C38.068 78.4099 37.3792 77.7213 36.5297 77.7213H29.9172L33.6882 73.5219C35.7091 71.4134 36.868 69.1657 36.868 67.3526C36.868 64.1827 34.4227 62.0526 30.7834 62.0526C28.6664 62.0526 26.4759 63.0135 24.9225 64.6228C24.3404 65.2266 24.3486 66.1858 24.9421 66.779L25.2649 67.1018C25.5572 67.3941 25.9613 67.5584 26.3679 67.5523C26.7809 67.5478 27.1754 67.378 27.4615 67.0802C28.3456 66.1615 29.618 65.5906 30.7834 65.5906C31.9447 65.5906 33.3293 65.8963 33.3293 67.3523C33.3293 68.0456 32.6404 69.5098 31.1275 71.0868C31.1155 71.0982 31.1049 71.1105 31.0939 71.1225Z" fill="url(#paint2_linear_33_78)"/>
<path d="M46.5678 81.2594H47.0299C47.8793 81.2594 48.5682 80.5701 48.5682 79.7207V76.4596H49.6138C50.4636 76.4596 51.1521 75.7707 51.1521 74.9213V74.4595C51.1521 73.6097 50.4633 72.9212 49.6138 72.9212H48.5682V69.3135C48.5682 68.4638 47.879 67.7753 47.0299 67.7753H46.5678C45.718 67.7753 45.0291 68.4641 45.0291 69.3135V72.9212H41.8901L46.8165 64.358C47.0906 63.8818 47.0899 63.2959 46.8148 62.8211C46.54 62.3452 46.0323 62.0526 45.483 62.0526H44.9526C44.402 62.0526 43.8933 62.3466 43.6185 62.8242L37.4344 73.5775C37.2999 73.8111 37.2292 74.0753 37.2292 74.3446V74.9216C37.2292 75.7714 37.9181 76.4599 38.7675 76.4599H45.0288V79.7211C45.0291 80.5701 45.7184 81.2594 46.5678 81.2594Z" fill="url(#paint3_linear_33_78)"/>
<path d="M55.5824 61.3637H55.121C54.1649 61.3637 53.3899 62.1387 53.3899 63.0948V80.2168C53.3899 81.1725 54.1649 81.9475 55.121 81.9475H55.5824C56.5385 81.9475 57.3135 81.1725 57.3135 80.2168V74.3785C57.3135 71.8392 58.4439 70.5266 60.6364 70.4786C62.3366 70.4786 63.1288 71.2779 63.1288 72.9939V80.2168C63.1288 81.1725 63.9038 81.9475 64.8595 81.9475H65.3213C66.2771 81.9475 67.0521 81.1725 67.0521 80.2168V72.9939C67.0521 69.083 64.534 66.5556 60.6052 66.556C59.3825 66.5783 58.2737 66.8342 57.3139 67.3001V63.0945C57.3135 62.1383 56.5385 61.3637 55.5824 61.3637Z" fill="url(#paint4_linear_33_78)"/>
</g>
<defs>
<linearGradient id="paint0_linear_33_78" x1="51.6509" y1="28.9127" x2="51.6509" y2="124.976" gradientUnits="userSpaceOnUse">
<stop stop-color="#00FF85"/>
<stop offset="1" stop-color="#00FFE0"/>
</linearGradient>
<linearGradient id="paint1_linear_33_78" x1="88.8894" y1="2.02405" x2="88.8894" y2="78.2315" gradientUnits="userSpaceOnUse">
<stop stop-color="#00FF85"/>
<stop offset="1" stop-color="#00FFE0"/>
</linearGradient>
<linearGradient id="paint2_linear_33_78" x1="31.2682" y1="62.0526" x2="31.2682" y2="81.2594" gradientUnits="userSpaceOnUse">
<stop stop-color="#00FF85"/>
<stop offset="1" stop-color="#00FFE0"/>
</linearGradient>
<linearGradient id="paint3_linear_33_78" x1="44.1907" y1="62.0526" x2="44.1907" y2="81.2594" gradientUnits="userSpaceOnUse">
<stop stop-color="#00FF85"/>
<stop offset="1" stop-color="#00FFE0"/>
</linearGradient>
<linearGradient id="paint4_linear_33_78" x1="60.221" y1="61.3637" x2="60.221" y2="81.9475" gradientUnits="userSpaceOnUse">
<stop stop-color="#00FF85"/>
<stop offset="1" stop-color="#00FFE0"/>
</linearGradient>
<clipPath id="clip0_33_78">
<rect width="127" height="127" fill="white"/>
</clipPath>
</defs>
</svg>
