<svg width="36" height="36" viewBox="0 0 36 36" fill="none" xmlns="http://www.w3.org/2000/svg">
<path fill-rule="evenodd" clip-rule="evenodd" d="M18 33C10.9289 33 7.39339 33 5.1967 30.8032C3 28.6066 3 25.071 3 18C3 10.9289 3 7.39339 5.1967 5.1967C7.39339 3 10.9289 3 18 3C25.071 3 28.6066 3 30.8032 5.1967C33 7.39339 33 10.9289 33 18C33 25.071 33 28.6066 30.8032 30.8032C28.6066 33 25.071 33 18 33Z" fill="url(#paint0_linear_39_291)"/>
<path d="M25.8294 12.4667L23.4529 23.6745C23.2734 24.4654 22.806 24.6623 22.1417 24.2899L18.5203 21.6214L16.7732 23.3021C16.5797 23.4956 16.4182 23.6571 16.0453 23.6571L16.3057 19.9693L23.0169 13.905C23.3089 13.6451 22.9534 13.5006 22.5635 13.761L14.2667 18.9855L10.6948 17.8673C9.91799 17.6248 9.90392 17.0904 10.8568 16.7175L24.8276 11.3349C25.4745 11.0925 26.0404 11.4784 25.8294 12.4667Z" fill="#0E0B29"/>
<defs>
<linearGradient id="paint0_linear_39_291" x1="18" y1="3" x2="18" y2="33" gradientUnits="userSpaceOnUse">
<stop stop-color="#00FF85"/>
<stop offset="1" stop-color="#00FFE0"/>
</linearGradient>
</defs>
</svg>
