<svg width="36" height="36" viewBox="0 0 36 36" fill="none" xmlns="http://www.w3.org/2000/svg">
<path fill-rule="evenodd" clip-rule="evenodd" d="M18 33C10.9289 33 7.39339 33 5.1967 30.8032C3 28.6066 3 25.071 3 18C3 10.9289 3 7.39339 5.1967 5.1967C7.39339 3 10.9289 3 18 3C25.071 3 28.6066 3 30.8032 5.1967C33 7.39339 33 10.9289 33 18C33 25.071 33 28.6066 30.8032 30.8032C28.6066 33 25.071 33 18 33Z" fill="url(#paint0_linear_39_314)"/>
<path fill-rule="evenodd" clip-rule="evenodd" d="M26.587 13.461C26.7121 13.0512 26.587 12.75 25.9915 12.75H24.0223C23.5216 12.75 23.2907 13.0102 23.1655 13.297C23.1655 13.297 22.1641 15.6946 20.7454 17.2519C20.2865 17.7027 20.0779 17.8462 19.8275 17.8462C19.7023 17.8462 19.5145 17.7027 19.5145 17.2929V13.461C19.5145 12.9692 19.3759 12.75 18.9586 12.75H15.8641C15.5512 12.75 15.363 12.9783 15.363 13.1946C15.363 13.6608 16.0723 13.7683 16.1454 15.0798V17.9281C16.1454 18.5526 16.0306 18.6659 15.7802 18.6659C15.1127 18.6659 13.4888 16.2576 12.5257 13.502C12.337 12.9664 12.1476 12.75 11.6444 12.75H9.67516C9.11253 12.75 9 13.0102 9 13.297C9 13.8093 9.66761 16.3503 12.1085 19.7109C13.7357 22.0059 16.0284 23.25 18.1146 23.25C19.3663 23.25 19.5212 22.9737 19.5212 22.4977V20.7632C19.5212 20.2106 19.6398 20.1002 20.0362 20.1002C20.3282 20.1002 20.8289 20.2437 21.9972 21.3502C23.3324 22.6617 23.5525 23.25 24.3035 23.25H26.2728C26.8354 23.25 27.1167 22.9737 26.9544 22.4284C26.7768 21.8849 26.1394 21.0964 25.2935 20.1617C24.8345 19.6289 24.146 19.0552 23.9374 18.7682C23.6453 18.3994 23.7288 18.2355 23.9374 17.9077C23.9374 17.9077 26.3366 14.588 26.587 13.461Z" fill="#0E0B29"/>
<defs>
<linearGradient id="paint0_linear_39_314" x1="18" y1="3" x2="18" y2="33" gradientUnits="userSpaceOnUse">
<stop stop-color="#00FF85"/>
<stop offset="1" stop-color="#00FFE0"/>
</linearGradient>
</defs>
</svg>
